<svg width="24" height="24" viewBox="0 0 24 24" fill="none" xmlns="http://www.w3.org/2000/svg">
<path d="M17.0707 12.0065C17.2459 12.1816 17.3335 12.4044 17.3335 12.6751C17.3335 12.9457 17.2459 13.1686 17.0707 13.3437L12.6755 17.7373C12.5799 17.8328 12.4764 17.9003 12.3649 17.9398C12.2535 17.9793 12.134 17.9994 12.0066 18C11.8792 18 11.7598 17.9799 11.6483 17.9398C11.5368 17.8997 11.4333 17.8322 11.3378 17.7373L6.94253 13.3437C6.76735 13.1686 6.67562 12.9495 6.66734 12.6865C6.65906 12.4235 6.75079 12.1969 6.94253 12.0065C7.1177 11.8314 7.34065 11.7438 7.61137 11.7438C7.88209 11.7438 8.10504 11.8314 8.28021 12.0065L12.0066 15.7077L15.733 12.0065C15.9082 11.8314 16.1273 11.7397 16.3904 11.7314C16.6535 11.7231 16.8803 11.8148 17.0707 12.0065ZM17.0707 6.2756C17.2459 6.45071 17.3335 6.67357 17.3335 6.9442C17.3335 7.21482 17.2459 7.43769 17.0707 7.6128L12.6755 12.0065C12.5799 12.102 12.4764 12.1695 12.3649 12.209C12.2535 12.2484 12.134 12.2685 12.0066 12.2691C11.8792 12.2691 11.7598 12.2491 11.6483 12.209C11.5368 12.1688 11.4333 12.1013 11.3378 12.0065L6.94253 7.6128C6.76735 7.43769 6.67562 7.21864 6.66734 6.95566C6.65906 6.69267 6.75079 6.46599 6.94253 6.27559C7.1177 6.10048 7.34065 6.01293 7.61137 6.01293C7.88209 6.01293 8.10504 6.10048 8.28021 6.27559L12.0066 9.97678L15.733 6.2756C15.9082 6.10049 16.1273 6.00879 16.3904 6.00051C16.6535 5.99224 16.8803 6.08393 17.0707 6.2756Z" fill="black"/>
</svg>
