<svg width="18" height="18" viewBox="0 0 18 18" fill="none" xmlns="http://www.w3.org/2000/svg">
<g clip-path="url(#clip0_392_227344)">
<path d="M9.43563 0C9.77693 0.0610966 10.1276 0.0986945 10.4642 0.17859C12.9608 0.770757 14.8824 2.90914 15.2143 5.4658C15.4387 7.1859 15.0367 8.74621 14.0128 10.1373C12.9047 11.6366 11.7873 13.1311 10.6652 14.6209C9.93589 15.589 8.62212 15.7629 7.68706 15.0204C7.53277 14.8982 7.39251 14.7478 7.27563 14.5927C6.16758 13.117 5.05953 11.6319 3.95615 10.1514C3.04446 8.9295 2.62368 7.55248 2.68446 6.02507C2.79667 3.35091 4.68083 0.963447 7.2429 0.249086C7.6216 0.145692 8.01901 0.0986945 8.40706 0.0281984C8.44446 0.018799 8.48654 0.00939948 8.52394 0C8.82784 0 9.13173 0 9.43563 0ZM13.8819 6.21305C13.8678 6.07206 13.8491 5.79948 13.8071 5.52689C13.3489 2.48616 10.0668 0.601567 7.21953 1.7342C4.15251 2.95614 3.10992 6.66423 5.08758 9.32898C6.16758 10.7859 7.25693 12.2381 8.3416 13.6903C8.72498 14.2026 9.22524 14.2073 9.60862 13.695C10.698 12.2381 11.7826 10.7812 12.872 9.32428C13.5312 8.44073 13.8678 7.45379 13.8819 6.21305Z" fill="#808080"/>
<path d="M8.99659 16.6041C9.9223 16.6041 10.848 16.5994 11.7784 16.6041C12.1478 16.6041 12.4423 16.8767 12.475 17.2386C12.5124 17.5958 12.2693 17.9201 11.914 17.9953C11.8626 18.0047 11.8111 18.0094 11.7597 18.0094C9.90828 18.0094 8.05217 18.0094 6.20074 18.0094C5.81737 18.0094 5.51815 17.7415 5.48542 17.3749C5.45269 17.013 5.69113 16.6887 6.04646 16.6182C6.12126 16.6041 6.19607 16.6041 6.27087 16.6041C7.17789 16.6041 8.08958 16.6041 8.99659 16.6041Z" fill="#808080"/>
<path d="M8.97345 4.22021C10.1283 4.22021 11.0773 5.16956 11.0773 6.3304C11.0773 7.49123 10.1283 8.44528 8.97345 8.44058C7.828 8.44058 6.87891 7.49123 6.87891 6.3398C6.87891 5.17896 7.81865 4.22491 8.97345 4.22021ZM8.97813 7.03536C9.3615 7.03536 9.67943 6.71578 9.67475 6.3304C9.67475 5.94502 9.35683 5.62544 8.97345 5.63014C8.59008 5.63014 8.27683 5.94502 8.27683 6.3351C8.2815 6.72048 8.59475 7.03536 8.97813 7.03536Z" fill="#808080"/>
</g>
<defs>
<clipPath id="clip0_392_227344">
<rect width="18" height="18" fill="white"/>
</clipPath>
</defs>
</svg>
