<svg width="18" height="18" viewBox="0 0 18 18" fill="none" xmlns="http://www.w3.org/2000/svg">
<path d="M9.01539 15.8101C7.15539 15.8101 5.31039 15.8101 3.45039 15.8101C1.87539 15.8101 0.600391 14.8201 0.240391 13.3201C0.180391 13.0501 0.150391 12.7801 0.150391 12.5101C0.150391 10.1401 0.150391 7.7701 0.150391 5.4001C0.150391 3.7051 1.27539 2.4001 2.94039 2.1301C3.10539 2.1001 3.28539 2.1001 3.45039 2.1001C7.17039 2.1001 10.8904 2.1001 14.6104 2.1001C16.2754 2.1001 17.5654 3.1801 17.8654 4.8001C17.8954 4.9951 17.9104 5.2051 17.9104 5.4001C17.9104 7.7701 17.9104 10.1401 17.9104 12.5101C17.9104 14.2051 16.7854 15.5101 15.1204 15.7801C14.9404 15.8101 14.7454 15.8101 14.5504 15.8101C12.7054 15.8101 10.8604 15.8101 9.01539 15.8101ZM16.2904 5.5501C16.2004 5.6251 16.1404 5.6701 16.0654 5.7151C14.5504 6.9001 13.0354 8.0851 11.5204 9.2551C10.0204 10.4101 8.02539 10.4101 6.52539 9.2401C4.99539 8.0551 3.48039 6.8701 1.96539 5.6851C1.90539 5.6401 1.86039 5.5951 1.78539 5.5501C1.78539 5.6101 1.78539 5.6401 1.78539 5.6701C1.78539 7.9801 1.78539 10.2901 1.78539 12.5851C1.78539 12.7351 1.80039 12.8701 1.84539 13.0201C2.04039 13.7551 2.68539 14.2051 3.51039 14.2051C6.19539 14.2051 8.89539 14.2051 11.5804 14.2051C12.6004 14.2051 13.6054 14.2051 14.6254 14.2051C15.6004 14.2051 16.3054 13.5151 16.3054 12.5701C16.3054 10.2751 16.3054 7.9801 16.3054 5.6851C16.2904 5.6551 16.2904 5.6251 16.2904 5.5501ZM2.44539 4.0201C2.49039 4.0651 2.52039 4.0801 2.55039 4.1101C4.18539 5.3851 5.83539 6.6601 7.47039 7.9351C8.46039 8.7001 9.61539 8.7001 10.6054 7.9201C11.8654 6.9451 13.1104 5.9701 14.3704 4.9951C14.7904 4.6651 15.1954 4.3501 15.6304 4.0201C15.3304 3.7951 15.0004 3.7051 14.6554 3.7051C10.9054 3.7051 7.17039 3.7051 3.42039 3.7051C3.07539 3.7051 2.74539 3.7951 2.44539 4.0201Z" fill="#808080"/>
</svg>
