<svg width="18" height="18" viewBox="0 0 18 18" fill="none" xmlns="http://www.w3.org/2000/svg">
<g clip-path="url(#clip0_392_227349)">
<path d="M0.00476317 4.95816C0.0333422 4.74881 0.0476317 4.53945 0.085737 4.33485C0.190527 3.82097 0.414395 3.36895 0.781159 2.99782C1.267 2.50297 1.73379 1.98909 2.25298 1.53707C3.04366 0.847141 3.9058 0.8519 4.6679 1.56562C5.4824 2.32692 6.2588 3.12629 7.01614 3.93993C7.5782 4.54421 7.57343 5.47204 7.02567 6.09536C6.6208 6.5569 6.17306 6.98037 5.73485 7.41812C5.64911 7.50376 5.63482 7.5561 5.69198 7.6703C6.13019 8.55055 6.74464 9.30234 7.41149 10.0161C8.09262 10.744 8.8452 11.3959 9.69304 11.9383C9.93596 12.0906 10.1932 12.2191 10.4599 12.3666C10.7886 12.0335 11.0982 11.7004 11.4316 11.3912C11.6745 11.1628 11.9222 10.9296 12.208 10.7678C12.8082 10.43 13.5417 10.5157 14.037 10.9915C14.8706 11.7908 15.6899 12.6045 16.4806 13.4467C17.0664 14.07 17.0759 15.0168 16.5044 15.6592C16.0042 16.2254 15.4708 16.7631 14.9278 17.2912C14.5134 17.6909 13.9942 17.905 13.4178 17.9812C13.3797 17.9859 13.3416 18.005 13.3035 18.0145C13.0797 18.0145 12.8558 18.0145 12.6367 18.0145C12.5986 18.005 12.5605 17.9907 12.5224 17.9812C12.1413 17.9098 11.7555 17.867 11.384 17.7718C10.0646 17.4245 8.85949 16.8107 7.71156 16.0874C4.83938 14.2603 2.62927 11.8289 1.086 8.80273C0.652554 7.95103 0.314369 7.06126 0.123842 6.11915C0.0619211 5.81463 0.0428685 5.50535 0 5.20083C0.00476317 5.11994 0.00476317 5.03905 0.00476317 4.95816ZM1.04313 5.10567C1.06219 5.31027 1.07648 5.51487 1.10029 5.71471C1.10982 5.80511 1.13363 5.90027 1.15269 5.99068C1.42895 7.23255 1.9529 8.3745 2.61498 9.44984C4.38211 12.3142 6.73035 14.5506 9.76449 16.0398C10.6981 16.4966 11.665 16.8678 12.7129 16.9629C13.3607 17.02 13.9323 16.8678 14.3943 16.3824C14.7753 15.9827 15.1659 15.5973 15.5517 15.2024C15.6089 15.1453 15.666 15.0835 15.7137 15.0168C15.9614 14.6981 15.9614 14.3602 15.6899 14.0605C15.4136 13.7559 15.1183 13.4705 14.8277 13.1802C14.3752 12.7282 13.9275 12.2762 13.4702 11.8289C13.1416 11.5053 12.7891 11.5053 12.4414 11.8099C12.389 11.8575 12.3366 11.905 12.289 11.9574C11.8841 12.3571 11.484 12.7615 11.0791 13.1612C10.7981 13.4371 10.4837 13.5038 10.1455 13.3372C9.80736 13.1659 9.46441 12.9899 9.14528 12.79C8.04499 12.0954 7.09712 11.2246 6.24927 10.2492C5.66817 9.57831 5.13469 8.8741 4.7584 8.06522C4.43927 7.38005 4.48214 7.19449 5.0299 6.66633C5.42048 6.29044 5.81106 5.90979 6.18735 5.51011C6.49219 5.18655 6.48267 4.863 6.19688 4.52042C6.16354 4.48235 6.12543 4.43953 6.09209 4.40146C5.41096 3.71629 4.72506 3.03112 4.03916 2.35071C3.96295 2.27458 3.87245 2.19845 3.77719 2.14611C3.47711 1.97958 3.1675 2.05095 2.8579 2.35547C2.46732 2.73612 2.09579 3.13104 1.70045 3.50694C1.23842 3.9542 1.01932 4.47759 1.04313 5.10567Z" fill="#808080"/>
<path d="M10.017 0C10.2313 0.0428232 10.4933 0.0856463 10.7458 0.15226C12.3081 0.547185 13.6942 1.27518 14.8945 2.35052C16.1377 3.46868 17.0522 4.81047 17.5952 6.39492C17.7667 6.88977 17.8715 7.40841 17.9905 7.92228C18.0572 8.21253 17.8858 8.45044 17.6047 8.51705C17.3428 8.57891 17.0855 8.4314 17.0093 8.15543C16.9284 7.86994 16.8807 7.57494 16.7998 7.28469C16.271 5.35289 15.1803 3.79699 13.5846 2.59318C12.5367 1.80809 11.365 1.29897 10.0789 1.05155C9.98366 1.03251 9.88364 1.01348 9.78837 0.980174C9.55974 0.894528 9.43113 0.651864 9.474 0.413957C9.51687 0.180809 9.73598 0 10.017 0Z" fill="#808080"/>
<path d="M9.88289 3.26863C10.3497 3.34 10.8355 3.47323 11.2928 3.68734C13.1695 4.56284 14.3174 6.01407 14.7366 8.04103C14.7985 8.34079 14.6365 8.61201 14.3555 8.67862C14.0888 8.74048 13.8268 8.57394 13.7411 8.28845C13.622 7.90304 13.5505 7.4986 13.3838 7.13699C12.6741 5.58584 11.4738 4.64373 9.80192 4.29638C9.49708 4.23453 9.33513 4.05848 9.33036 3.79202C9.32084 3.49226 9.54947 3.26387 9.88289 3.26863Z" fill="#808080"/>
</g>
<defs>
<clipPath id="clip0_392_227349">
<rect width="18" height="18" fill="white"/>
</clipPath>
</defs>
</svg>
