<svg width="24" height="24" viewBox="0 0 24 24" fill="none" xmlns="http://www.w3.org/2000/svg">
<g clip-path="url(#clip0_125_30482)">
<path d="M12.581 0C13.0361 0.0814621 13.5036 0.131593 13.9524 0.23812C17.2813 1.02768 19.8433 3.87885 20.2859 7.28773C20.5852 9.5812 20.0491 11.6616 18.6839 13.5164C17.2065 15.5154 15.7166 17.5081 14.2205 19.4945C13.248 20.7854 11.4963 21.0172 10.2496 20.0272C10.0439 19.8642 9.85685 19.6637 9.701 19.4569C8.2236 17.4893 6.7462 15.5091 5.27503 13.5352C4.05945 11.906 3.49841 10.07 3.57945 8.03342C3.72906 4.46789 6.24126 1.2846 9.65737 0.332115C10.1623 0.194256 10.6922 0.131593 11.2096 0.0375979C11.2594 0.0250653 11.3155 0.0125326 11.3654 0C11.7706 0 12.1758 0 12.581 0ZM18.5093 8.28407C18.4906 8.09608 18.4657 7.73264 18.4096 7.36919C17.7987 3.31488 13.4226 0.802089 9.6262 2.31227C5.53685 3.94151 4.14672 8.88564 6.7836 12.4386C8.2236 14.3812 9.67607 16.3175 11.1223 18.2538C11.6335 18.9368 12.3005 18.9431 12.8117 18.2601C14.2641 16.3175 15.7104 14.3749 17.1628 12.4324C18.0418 11.2543 18.4906 9.93838 18.5093 8.28407Z" fill="black"/>
<path d="M11.9956 22.1385C13.2299 22.1385 14.4642 22.1323 15.7047 22.1385C16.1972 22.1385 16.5899 22.502 16.6335 22.9845C16.6834 23.4607 16.3592 23.8931 15.8855 23.9934C15.8169 24.0059 15.7483 24.0122 15.6798 24.0122C13.2112 24.0122 10.7364 24.0122 8.26782 24.0122C7.75665 24.0122 7.35769 23.655 7.31405 23.1662C7.27042 22.6837 7.58834 22.2513 8.06211 22.1573C8.16185 22.1385 8.26159 22.1385 8.36133 22.1385C9.57068 22.1385 10.7863 22.1385 11.9956 22.1385Z" fill="black"/>
<path d="M11.9646 5.62695C13.5043 5.62695 14.7698 6.89275 14.7698 8.44053C14.7698 9.98831 13.5043 11.2604 11.9646 11.2541C10.4373 11.2541 9.17188 9.98831 9.17188 8.45306C9.17188 6.90528 10.4249 5.63322 11.9646 5.62695ZM11.9708 9.38048C12.482 9.38048 12.9059 8.95437 12.8997 8.44053C12.8997 7.92669 12.4758 7.50058 11.9646 7.50685C11.4534 7.50685 11.0358 7.92669 11.0358 8.4468C11.042 8.96063 11.4597 9.38048 11.9708 9.38048Z" fill="black"/>
</g>
<defs>
<clipPath id="clip0_125_30482">
<rect width="24" height="24" fill="white"/>
</clipPath>
</defs>
</svg>
