<svg width="57" height="63" viewBox="0 0 57 63" fill="none" xmlns="http://www.w3.org/2000/svg">
<g clip-path="url(#clip0_125_30185)">
<g filter="url(#filter0_d_125_30185)">
<mask id="mask0_125_30185" style="mask-type:luminance" maskUnits="userSpaceOnUse" x="2" y="5" width="54" height="54">
<path d="M55.6 31.8C55.6 46.6 43.6 58.6 28.8 58.6C14 58.6 2 46.6 2 31.8C2 17 14 5 28.8 5C43.6 5 55.6 17 55.6 31.8Z" fill="white"/>
</mask>
<g mask="url(#mask0_125_30185)">
<path d="M82.7004 1.19922H-25.0996V63.7992H82.7004V1.19922Z" fill="black"/>
<g opacity="0.5">
<path d="M4.90039 63.7994L-1.09961 53.3994H10.8004L4.90039 63.7994L-1.09961 53.3994H10.8004L4.90039 63.7994Z" fill="url(#paint0_linear_125_30185)"/>
<path d="M4.90039 53.3994L-1.09961 42.8994H10.8004L4.90039 53.3994L-1.09961 42.8994H10.8004L4.90039 53.3994Z" fill="url(#paint1_linear_125_30185)"/>
<path d="M4.90039 42.9L-1.09961 32.5H10.8004L4.90039 42.9L-1.09961 32.5H10.8004L4.90039 42.9Z" fill="url(#paint2_linear_125_30185)"/>
<path d="M4.90039 32.5L-1.09961 22H10.8004L4.90039 32.5L-1.09961 22H10.8004L4.90039 32.5Z" fill="url(#paint3_linear_125_30185)"/>
<path d="M4.90039 22L-1.09961 11.5H10.8004L4.90039 22L-1.09961 11.5H10.8004L4.90039 22Z" fill="url(#paint4_linear_125_30185)"/>
<path d="M4.90039 11.4996L-1.09961 1.09961H10.8004L4.90039 11.4996L-1.09961 1.09961H10.8004L4.90039 11.4996Z" fill="url(#paint5_linear_125_30185)"/>
<path d="M16.8008 63.7994L10.8008 53.3994H22.8008L16.8008 63.7994L10.8008 53.3994H22.8008L16.8008 63.7994Z" fill="url(#paint6_linear_125_30185)"/>
<path d="M16.8008 53.3994L10.8008 42.8994H22.8008L16.8008 53.3994L10.8008 42.8994H22.8008L16.8008 53.3994Z" fill="url(#paint7_linear_125_30185)"/>
<path d="M16.8008 42.9L10.8008 32.5H22.8008L16.8008 42.9L10.8008 32.5H22.8008L16.8008 42.9Z" fill="url(#paint8_linear_125_30185)"/>
<path d="M16.8008 32.5L10.8008 22H22.8008L16.8008 32.5L10.8008 22H22.8008L16.8008 32.5Z" fill="url(#paint9_linear_125_30185)"/>
<path d="M16.8008 22L10.8008 11.5H22.8008L16.8008 22L10.8008 11.5H22.8008L16.8008 22Z" fill="url(#paint10_linear_125_30185)"/>
<path d="M16.8008 11.4996L10.8008 1.09961H22.8008L16.8008 11.4996L10.8008 1.09961H22.8008L16.8008 11.4996Z" fill="url(#paint11_linear_125_30185)"/>
<path d="M28.8008 63.7994L22.8008 53.3994H34.8008L28.8008 63.7994L22.8008 53.3994H34.8008L28.8008 63.7994Z" fill="url(#paint12_linear_125_30185)"/>
<path d="M28.8008 53.3994L22.8008 42.8994H34.8008L28.8008 53.3994L22.8008 42.8994H34.8008L28.8008 53.3994Z" fill="url(#paint13_linear_125_30185)"/>
<path d="M28.8008 42.9L22.8008 32.5H34.8008L28.8008 42.9L22.8008 32.5H34.8008L28.8008 42.9Z" fill="url(#paint14_linear_125_30185)"/>
<path d="M28.8008 32.5L22.8008 22H34.8008L28.8008 32.5L22.8008 22H34.8008L28.8008 32.5Z" fill="url(#paint15_linear_125_30185)"/>
<path d="M28.8008 22L22.8008 11.5H34.8008L28.8008 22L22.8008 11.5H34.8008L28.8008 22Z" fill="url(#paint16_linear_125_30185)"/>
<path d="M28.8008 11.4996L22.8008 1.09961H34.8008L28.8008 11.4996L22.8008 1.09961H34.8008L28.8008 11.4996Z" fill="url(#paint17_linear_125_30185)"/>
<path d="M40.8008 63.7994L34.8008 53.3994H46.8008L40.8008 63.7994L34.8008 53.3994H46.8008L40.8008 63.7994Z" fill="url(#paint18_linear_125_30185)"/>
<path d="M40.8008 53.3994L34.8008 42.8994H46.8008L40.8008 53.3994L34.8008 42.8994H46.8008L40.8008 53.3994Z" fill="url(#paint19_linear_125_30185)"/>
<path d="M40.8008 42.9L34.8008 32.5H46.8008L40.8008 42.9L34.8008 32.5H46.8008L40.8008 42.9Z" fill="url(#paint20_linear_125_30185)"/>
<path d="M40.8008 32.5L34.8008 22H46.8008L40.8008 32.5L34.8008 22H46.8008L40.8008 32.5Z" fill="url(#paint21_linear_125_30185)"/>
<path d="M40.8008 22L34.8008 11.5H46.8008L40.8008 22L34.8008 11.5H46.8008L40.8008 22Z" fill="url(#paint22_linear_125_30185)"/>
<path d="M40.8008 11.4996L34.8008 1.09961H46.8008L40.8008 11.4996L34.8008 1.09961H46.8008L40.8008 11.4996Z" fill="url(#paint23_linear_125_30185)"/>
<path d="M52.8008 63.7994L46.8008 53.3994H58.8008L52.8008 63.7994L46.8008 53.3994H58.8008L52.8008 63.7994Z" fill="url(#paint24_linear_125_30185)"/>
<path d="M52.8008 53.3994L46.8008 42.8994H58.8008L52.8008 53.3994L46.8008 42.8994H58.8008L52.8008 53.3994Z" fill="url(#paint25_linear_125_30185)"/>
<path d="M52.8008 42.9L46.8008 32.5H58.8008L52.8008 42.9L46.8008 32.5H58.8008L52.8008 42.9Z" fill="url(#paint26_linear_125_30185)"/>
<path d="M52.8008 32.5L46.8008 22H58.8008L52.8008 32.5L46.8008 22H58.8008L52.8008 32.5Z" fill="url(#paint27_linear_125_30185)"/>
<path d="M52.8008 22L46.8008 11.5H58.8008L52.8008 22L46.8008 11.5H58.8008L52.8008 22Z" fill="url(#paint28_linear_125_30185)"/>
<path d="M52.8008 11.4996L46.8008 1.09961H58.8008L52.8008 11.4996L46.8008 1.09961H58.8008L52.8008 11.4996Z" fill="url(#paint29_linear_125_30185)"/>
</g>
<g opacity="0.5">
<path d="M52.8008 1.09961L58.8008 11.5996H46.8008L52.8008 1.09961L58.8008 11.5996H46.8008L52.8008 1.09961Z" fill="url(#paint30_linear_125_30185)"/>
<path d="M52.8008 11.5996L58.8008 21.9996H46.8008L52.8008 11.5996L58.8008 21.9996H46.8008L52.8008 11.5996Z" fill="url(#paint31_linear_125_30185)"/>
<path d="M52.8008 22L58.8008 32.5H46.8008L52.8008 22L58.8008 32.5H46.8008L52.8008 22Z" fill="url(#paint32_linear_125_30185)"/>
<path d="M52.8008 32.5L58.8008 42.9H46.8008L52.8008 32.5L58.8008 42.9H46.8008L52.8008 32.5Z" fill="url(#paint33_linear_125_30185)"/>
<path d="M52.8008 42.8994L58.8008 53.3994H46.8008L52.8008 42.8994L58.8008 53.3994H46.8008L52.8008 42.8994Z" fill="url(#paint34_linear_125_30185)"/>
<path d="M52.8008 53.3994L58.8008 63.7994H46.8008L52.8008 53.3994L58.8008 63.7994H46.8008L52.8008 53.3994Z" fill="url(#paint35_linear_125_30185)"/>
<path d="M40.8008 1.09961L46.8008 11.5996H34.8008L40.8008 1.09961L46.8008 11.5996H34.8008L40.8008 1.09961Z" fill="url(#paint36_linear_125_30185)"/>
<path d="M40.8008 11.5996L46.8008 21.9996H34.8008L40.8008 11.5996L46.8008 21.9996H34.8008L40.8008 11.5996Z" fill="url(#paint37_linear_125_30185)"/>
<path d="M40.8008 22L46.8008 32.5H34.8008L40.8008 22L46.8008 32.5H34.8008L40.8008 22Z" fill="url(#paint38_linear_125_30185)"/>
<path d="M40.8008 32.5L46.8008 42.9H34.8008L40.8008 32.5L46.8008 42.9H34.8008L40.8008 32.5Z" fill="url(#paint39_linear_125_30185)"/>
<path d="M40.8008 42.8994L46.8008 53.3994H34.8008L40.8008 42.8994L46.8008 53.3994H34.8008L40.8008 42.8994Z" fill="url(#paint40_linear_125_30185)"/>
<path d="M40.8008 53.3994L46.8008 63.7994H34.8008L40.8008 53.3994L46.8008 63.7994H34.8008L40.8008 53.3994Z" fill="url(#paint41_linear_125_30185)"/>
<path d="M28.8008 1.09961L34.8008 11.5996H22.8008L28.8008 1.09961L34.8008 11.5996H22.8008L28.8008 1.09961Z" fill="url(#paint42_linear_125_30185)"/>
<path d="M28.8008 11.5996L34.8008 21.9996H22.8008L28.8008 11.5996L34.8008 21.9996H22.8008L28.8008 11.5996Z" fill="url(#paint43_linear_125_30185)"/>
<path d="M28.8008 22L34.8008 32.5H22.8008L28.8008 22L34.8008 32.5H22.8008L28.8008 22Z" fill="url(#paint44_linear_125_30185)"/>
<path d="M28.8008 32.5L34.8008 42.9H22.8008L28.8008 32.5L34.8008 42.9H22.8008L28.8008 32.5Z" fill="url(#paint45_linear_125_30185)"/>
<path d="M28.8008 42.8994L34.8008 53.3994H22.8008L28.8008 42.8994L34.8008 53.3994H22.8008L28.8008 42.8994Z" fill="url(#paint46_linear_125_30185)"/>
<path d="M28.8008 53.3994L34.8008 63.7994H22.8008L28.8008 53.3994L34.8008 63.7994H22.8008L28.8008 53.3994Z" fill="url(#paint47_linear_125_30185)"/>
<path d="M16.8008 1.09961L22.8008 11.5996H10.8008L16.8008 1.09961L22.8008 11.5996H10.8008L16.8008 1.09961Z" fill="url(#paint48_linear_125_30185)"/>
<path d="M16.8008 11.5996L22.8008 21.9996H10.8008L16.8008 11.5996L22.8008 21.9996H10.8008L16.8008 11.5996Z" fill="url(#paint49_linear_125_30185)"/>
<path d="M16.8008 22L22.8008 32.5H10.8008L16.8008 22L22.8008 32.5H10.8008L16.8008 22Z" fill="url(#paint50_linear_125_30185)"/>
<path d="M16.8008 32.5L22.8008 42.9H10.8008L16.8008 32.5L22.8008 42.9H10.8008L16.8008 32.5Z" fill="url(#paint51_linear_125_30185)"/>
<path d="M16.8008 42.8994L22.8008 53.3994H10.8008L16.8008 42.8994L22.8008 53.3994H10.8008L16.8008 42.8994Z" fill="url(#paint52_linear_125_30185)"/>
<path d="M16.8008 53.3994L22.8008 63.7994H10.8008L16.8008 53.3994L22.8008 63.7994H10.8008L16.8008 53.3994Z" fill="url(#paint53_linear_125_30185)"/>
<path d="M4.90039 1.09961L10.8004 11.5996H-1.09961L4.90039 1.09961L10.8004 11.5996H-1.09961L4.90039 1.09961Z" fill="url(#paint54_linear_125_30185)"/>
<path d="M4.90039 11.5996L10.8004 21.9996H-1.09961L4.90039 11.5996L10.8004 21.9996H-1.09961L4.90039 11.5996Z" fill="url(#paint55_linear_125_30185)"/>
<path d="M4.90039 22L10.8004 32.5H-1.09961L4.90039 22L10.8004 32.5H-1.09961L4.90039 22Z" fill="url(#paint56_linear_125_30185)"/>
<path d="M4.90039 32.5L10.8004 42.9H-1.09961L4.90039 32.5L10.8004 42.9H-1.09961L4.90039 32.5Z" fill="url(#paint57_linear_125_30185)"/>
<path d="M4.90039 42.8994L10.8004 53.3994H-1.09961L4.90039 42.8994L10.8004 53.3994H-1.09961L4.90039 42.8994Z" fill="url(#paint58_linear_125_30185)"/>
<path d="M4.90039 53.3994L10.8004 63.7994H-1.09961L4.90039 53.3994L10.8004 63.7994H-1.09961L4.90039 53.3994Z" fill="url(#paint59_linear_125_30185)"/>
</g>
<path d="M82.7004 1.19922H-25.0996V63.7992H82.7004V1.19922Z" fill="url(#paint60_radial_125_30185)"/>
</g>
<path d="M16.5004 24.7996L13.4004 18.5996H19.5004L22.6004 24.7996H16.5004Z" fill="url(#paint61_linear_125_30185)"/>
<path d="M28.8 49.3994L19.5 30.8994H25.7L28.8 37.0994L31.9 30.8994H38L28.8 49.3994Z" fill="url(#paint62_linear_125_30185)"/>
<path d="M35 24.7996L38 18.5996H44.2L41.1 24.7996H35Z" fill="url(#paint63_linear_125_30185)"/>
</g>
</g>
<defs>
<filter id="filter0_d_125_30185" x="-2" y="5" width="61.6001" height="61.5996" filterUnits="userSpaceOnUse" color-interpolation-filters="sRGB">
<feFlood flood-opacity="0" result="BackgroundImageFix"/>
<feColorMatrix in="SourceAlpha" type="matrix" values="0 0 0 0 0 0 0 0 0 0 0 0 0 0 0 0 0 0 127 0" result="hardAlpha"/>
<feOffset dy="4"/>
<feGaussianBlur stdDeviation="2"/>
<feComposite in2="hardAlpha" operator="out"/>
<feColorMatrix type="matrix" values="0 0 0 0 0 0 0 0 0 0 0 0 0 0 0 0 0 0 0.25 0"/>
<feBlend mode="normal" in2="BackgroundImageFix" result="effect1_dropShadow_125_30185"/>
<feBlend mode="normal" in="SourceGraphic" in2="effect1_dropShadow_125_30185" result="shape"/>
</filter>
<linearGradient id="paint0_linear_125_30185" x1="10.8496" y1="58.5761" x2="-1.13321" y2="58.5761" gradientUnits="userSpaceOnUse">
<stop stop-color="#1A1A1A" stop-opacity="0.3"/>
<stop offset="0.3518" stop-color="#262626" stop-opacity="0.4675"/>
<stop offset="0.63" stop-color="#333333" stop-opacity="0.6"/>
</linearGradient>
<linearGradient id="paint1_linear_125_30185" x1="10.8496" y1="48.1257" x2="-1.13321" y2="48.1257" gradientUnits="userSpaceOnUse">
<stop stop-color="#1A1A1A" stop-opacity="0.3"/>
<stop offset="0.3518" stop-color="#262626" stop-opacity="0.4675"/>
<stop offset="0.63" stop-color="#333333" stop-opacity="0.6"/>
</linearGradient>
<linearGradient id="paint2_linear_125_30185" x1="10.8496" y1="37.676" x2="-1.13321" y2="37.676" gradientUnits="userSpaceOnUse">
<stop stop-color="#1A1A1A" stop-opacity="0.3"/>
<stop offset="0.3518" stop-color="#262626" stop-opacity="0.4675"/>
<stop offset="0.63" stop-color="#333333" stop-opacity="0.6"/>
</linearGradient>
<linearGradient id="paint3_linear_125_30185" x1="10.8496" y1="27.2256" x2="-1.13321" y2="27.2256" gradientUnits="userSpaceOnUse">
<stop stop-color="#1A1A1A" stop-opacity="0.3"/>
<stop offset="0.3518" stop-color="#262626" stop-opacity="0.4675"/>
<stop offset="0.63" stop-color="#333333" stop-opacity="0.6"/>
</linearGradient>
<linearGradient id="paint4_linear_125_30185" x1="10.8496" y1="16.7752" x2="-1.13321" y2="16.7752" gradientUnits="userSpaceOnUse">
<stop stop-color="#1A1A1A" stop-opacity="0.3"/>
<stop offset="0.3518" stop-color="#262626" stop-opacity="0.4675"/>
<stop offset="0.63" stop-color="#333333" stop-opacity="0.6"/>
</linearGradient>
<linearGradient id="paint5_linear_125_30185" x1="10.8496" y1="6.32461" x2="-1.13321" y2="6.32461" gradientUnits="userSpaceOnUse">
<stop stop-color="#1A1A1A" stop-opacity="0.3"/>
<stop offset="0.3518" stop-color="#262626" stop-opacity="0.4675"/>
<stop offset="0.63" stop-color="#333333" stop-opacity="0.6"/>
</linearGradient>
<linearGradient id="paint6_linear_125_30185" x1="22.8328" y1="58.5761" x2="10.85" y2="58.5761" gradientUnits="userSpaceOnUse">
<stop stop-color="#1A1A1A" stop-opacity="0.3"/>
<stop offset="0.3518" stop-color="#262626" stop-opacity="0.4675"/>
<stop offset="0.63" stop-color="#333333" stop-opacity="0.6"/>
</linearGradient>
<linearGradient id="paint7_linear_125_30185" x1="22.8328" y1="48.1257" x2="10.85" y2="48.1257" gradientUnits="userSpaceOnUse">
<stop stop-color="#1A1A1A" stop-opacity="0.3"/>
<stop offset="0.3518" stop-color="#262626" stop-opacity="0.4675"/>
<stop offset="0.63" stop-color="#333333" stop-opacity="0.6"/>
</linearGradient>
<linearGradient id="paint8_linear_125_30185" x1="22.8328" y1="37.676" x2="10.85" y2="37.676" gradientUnits="userSpaceOnUse">
<stop stop-color="#1A1A1A" stop-opacity="0.3"/>
<stop offset="0.3518" stop-color="#262626" stop-opacity="0.4675"/>
<stop offset="0.63" stop-color="#333333" stop-opacity="0.6"/>
</linearGradient>
<linearGradient id="paint9_linear_125_30185" x1="22.8328" y1="27.2256" x2="10.85" y2="27.2256" gradientUnits="userSpaceOnUse">
<stop stop-color="#1A1A1A" stop-opacity="0.3"/>
<stop offset="0.3518" stop-color="#262626" stop-opacity="0.4675"/>
<stop offset="0.63" stop-color="#333333" stop-opacity="0.6"/>
</linearGradient>
<linearGradient id="paint10_linear_125_30185" x1="22.8328" y1="16.7752" x2="10.85" y2="16.7752" gradientUnits="userSpaceOnUse">
<stop stop-color="#1A1A1A" stop-opacity="0.3"/>
<stop offset="0.3518" stop-color="#262626" stop-opacity="0.4675"/>
<stop offset="0.63" stop-color="#333333" stop-opacity="0.6"/>
</linearGradient>
<linearGradient id="paint11_linear_125_30185" x1="22.8328" y1="6.32461" x2="10.85" y2="6.32461" gradientUnits="userSpaceOnUse">
<stop stop-color="#1A1A1A" stop-opacity="0.3"/>
<stop offset="0.3518" stop-color="#262626" stop-opacity="0.4675"/>
<stop offset="0.63" stop-color="#333333" stop-opacity="0.6"/>
</linearGradient>
<linearGradient id="paint12_linear_125_30185" x1="34.8159" y1="58.5761" x2="22.8328" y2="58.5761" gradientUnits="userSpaceOnUse">
<stop stop-color="#1A1A1A" stop-opacity="0.3"/>
<stop offset="0.3518" stop-color="#262626" stop-opacity="0.4675"/>
<stop offset="0.63" stop-color="#333333" stop-opacity="0.6"/>
</linearGradient>
<linearGradient id="paint13_linear_125_30185" x1="34.8159" y1="48.1257" x2="22.8328" y2="48.1257" gradientUnits="userSpaceOnUse">
<stop stop-color="#1A1A1A" stop-opacity="0.3"/>
<stop offset="0.3518" stop-color="#262626" stop-opacity="0.4675"/>
<stop offset="0.63" stop-color="#333333" stop-opacity="0.6"/>
</linearGradient>
<linearGradient id="paint14_linear_125_30185" x1="34.8159" y1="37.676" x2="22.8328" y2="37.676" gradientUnits="userSpaceOnUse">
<stop stop-color="#1A1A1A" stop-opacity="0.3"/>
<stop offset="0.3518" stop-color="#262626" stop-opacity="0.4675"/>
<stop offset="0.63" stop-color="#333333" stop-opacity="0.6"/>
</linearGradient>
<linearGradient id="paint15_linear_125_30185" x1="34.8159" y1="27.2256" x2="22.8328" y2="27.2256" gradientUnits="userSpaceOnUse">
<stop stop-color="#1A1A1A" stop-opacity="0.3"/>
<stop offset="0.3518" stop-color="#262626" stop-opacity="0.4675"/>
<stop offset="0.63" stop-color="#333333" stop-opacity="0.6"/>
</linearGradient>
<linearGradient id="paint16_linear_125_30185" x1="34.8159" y1="16.7752" x2="22.8328" y2="16.7752" gradientUnits="userSpaceOnUse">
<stop stop-color="#1A1A1A" stop-opacity="0.3"/>
<stop offset="0.3518" stop-color="#262626" stop-opacity="0.4675"/>
<stop offset="0.63" stop-color="#333333" stop-opacity="0.6"/>
</linearGradient>
<linearGradient id="paint17_linear_125_30185" x1="34.8159" y1="6.32461" x2="22.8328" y2="6.32461" gradientUnits="userSpaceOnUse">
<stop stop-color="#1A1A1A" stop-opacity="0.3"/>
<stop offset="0.3518" stop-color="#262626" stop-opacity="0.4675"/>
<stop offset="0.63" stop-color="#333333" stop-opacity="0.6"/>
</linearGradient>
<linearGradient id="paint18_linear_125_30185" x1="46.7987" y1="58.5761" x2="34.8159" y2="58.5761" gradientUnits="userSpaceOnUse">
<stop stop-color="#1A1A1A" stop-opacity="0.3"/>
<stop offset="0.3518" stop-color="#262626" stop-opacity="0.4675"/>
<stop offset="0.63" stop-color="#333333" stop-opacity="0.6"/>
</linearGradient>
<linearGradient id="paint19_linear_125_30185" x1="46.7987" y1="48.1257" x2="34.8159" y2="48.1257" gradientUnits="userSpaceOnUse">
<stop stop-color="#1A1A1A" stop-opacity="0.3"/>
<stop offset="0.3518" stop-color="#262626" stop-opacity="0.4675"/>
<stop offset="0.63" stop-color="#333333" stop-opacity="0.6"/>
</linearGradient>
<linearGradient id="paint20_linear_125_30185" x1="46.7987" y1="37.676" x2="34.8159" y2="37.676" gradientUnits="userSpaceOnUse">
<stop stop-color="#1A1A1A" stop-opacity="0.3"/>
<stop offset="0.3518" stop-color="#262626" stop-opacity="0.4675"/>
<stop offset="0.63" stop-color="#333333" stop-opacity="0.6"/>
</linearGradient>
<linearGradient id="paint21_linear_125_30185" x1="46.7987" y1="27.2256" x2="34.8159" y2="27.2256" gradientUnits="userSpaceOnUse">
<stop stop-color="#1A1A1A" stop-opacity="0.3"/>
<stop offset="0.3518" stop-color="#262626" stop-opacity="0.4675"/>
<stop offset="0.63" stop-color="#333333" stop-opacity="0.6"/>
</linearGradient>
<linearGradient id="paint22_linear_125_30185" x1="46.7987" y1="16.7752" x2="34.8159" y2="16.7752" gradientUnits="userSpaceOnUse">
<stop stop-color="#1A1A1A" stop-opacity="0.3"/>
<stop offset="0.3518" stop-color="#262626" stop-opacity="0.4675"/>
<stop offset="0.63" stop-color="#333333" stop-opacity="0.6"/>
</linearGradient>
<linearGradient id="paint23_linear_125_30185" x1="46.7987" y1="6.32461" x2="34.8159" y2="6.32461" gradientUnits="userSpaceOnUse">
<stop stop-color="#1A1A1A" stop-opacity="0.3"/>
<stop offset="0.3518" stop-color="#262626" stop-opacity="0.4675"/>
<stop offset="0.63" stop-color="#333333" stop-opacity="0.6"/>
</linearGradient>
<linearGradient id="paint24_linear_125_30185" x1="58.782" y1="58.5761" x2="46.7987" y2="58.5761" gradientUnits="userSpaceOnUse">
<stop stop-color="#1A1A1A" stop-opacity="0.3"/>
<stop offset="0.3518" stop-color="#262626" stop-opacity="0.4675"/>
<stop offset="0.63" stop-color="#333333" stop-opacity="0.6"/>
</linearGradient>
<linearGradient id="paint25_linear_125_30185" x1="58.782" y1="48.1257" x2="46.7987" y2="48.1257" gradientUnits="userSpaceOnUse">
<stop stop-color="#1A1A1A" stop-opacity="0.3"/>
<stop offset="0.3518" stop-color="#262626" stop-opacity="0.4675"/>
<stop offset="0.63" stop-color="#333333" stop-opacity="0.6"/>
</linearGradient>
<linearGradient id="paint26_linear_125_30185" x1="58.782" y1="37.676" x2="46.7987" y2="37.676" gradientUnits="userSpaceOnUse">
<stop stop-color="#1A1A1A" stop-opacity="0.3"/>
<stop offset="0.3518" stop-color="#262626" stop-opacity="0.4675"/>
<stop offset="0.63" stop-color="#333333" stop-opacity="0.6"/>
</linearGradient>
<linearGradient id="paint27_linear_125_30185" x1="58.782" y1="27.2256" x2="46.7987" y2="27.2256" gradientUnits="userSpaceOnUse">
<stop stop-color="#1A1A1A" stop-opacity="0.3"/>
<stop offset="0.3518" stop-color="#262626" stop-opacity="0.4675"/>
<stop offset="0.63" stop-color="#333333" stop-opacity="0.6"/>
</linearGradient>
<linearGradient id="paint28_linear_125_30185" x1="58.782" y1="16.7752" x2="46.7987" y2="16.7752" gradientUnits="userSpaceOnUse">
<stop stop-color="#1A1A1A" stop-opacity="0.3"/>
<stop offset="0.3518" stop-color="#262626" stop-opacity="0.4675"/>
<stop offset="0.63" stop-color="#333333" stop-opacity="0.6"/>
</linearGradient>
<linearGradient id="paint29_linear_125_30185" x1="58.782" y1="6.32461" x2="46.7987" y2="6.32461" gradientUnits="userSpaceOnUse">
<stop stop-color="#1A1A1A" stop-opacity="0.3"/>
<stop offset="0.3518" stop-color="#262626" stop-opacity="0.4675"/>
<stop offset="0.63" stop-color="#333333" stop-opacity="0.6"/>
</linearGradient>
<linearGradient id="paint30_linear_125_30185" x1="58.7816" y1="6.32491" x2="46.7987" y2="6.32491" gradientUnits="userSpaceOnUse">
<stop stop-color="#4D4D4D" stop-opacity="0.4"/>
<stop offset="0.0999838" stop-color="#464646" stop-opacity="0.4"/>
<stop offset="0.6149" stop-color="#262626" stop-opacity="0.4"/>
<stop offset="0.9" stop-color="#1A1A1A" stop-opacity="0.4"/>
</linearGradient>
<linearGradient id="paint31_linear_125_30185" x1="58.7816" y1="16.7752" x2="46.7987" y2="16.7752" gradientUnits="userSpaceOnUse">
<stop stop-color="#4D4D4D" stop-opacity="0.4"/>
<stop offset="0.0999838" stop-color="#464646" stop-opacity="0.4"/>
<stop offset="0.6149" stop-color="#262626" stop-opacity="0.4"/>
<stop offset="0.9" stop-color="#1A1A1A" stop-opacity="0.4"/>
</linearGradient>
<linearGradient id="paint32_linear_125_30185" x1="58.7816" y1="27.2257" x2="46.7987" y2="27.2257" gradientUnits="userSpaceOnUse">
<stop stop-color="#4D4D4D" stop-opacity="0.4"/>
<stop offset="0.0999838" stop-color="#464646" stop-opacity="0.4"/>
<stop offset="0.6149" stop-color="#262626" stop-opacity="0.4"/>
<stop offset="0.9" stop-color="#1A1A1A" stop-opacity="0.4"/>
</linearGradient>
<linearGradient id="paint33_linear_125_30185" x1="58.7816" y1="37.6761" x2="46.7987" y2="37.6761" gradientUnits="userSpaceOnUse">
<stop stop-color="#4D4D4D" stop-opacity="0.4"/>
<stop offset="0.0999838" stop-color="#464646" stop-opacity="0.4"/>
<stop offset="0.6149" stop-color="#262626" stop-opacity="0.4"/>
<stop offset="0.9" stop-color="#1A1A1A" stop-opacity="0.4"/>
</linearGradient>
<linearGradient id="paint34_linear_125_30185" x1="58.7816" y1="48.1262" x2="46.7987" y2="48.1262" gradientUnits="userSpaceOnUse">
<stop stop-color="#4D4D4D" stop-opacity="0.4"/>
<stop offset="0.0999838" stop-color="#464646" stop-opacity="0.4"/>
<stop offset="0.6149" stop-color="#262626" stop-opacity="0.4"/>
<stop offset="0.9" stop-color="#1A1A1A" stop-opacity="0.4"/>
</linearGradient>
<linearGradient id="paint35_linear_125_30185" x1="58.7816" y1="58.5764" x2="46.7987" y2="58.5764" gradientUnits="userSpaceOnUse">
<stop stop-color="#4D4D4D" stop-opacity="0.4"/>
<stop offset="0.0999838" stop-color="#464646" stop-opacity="0.4"/>
<stop offset="0.6149" stop-color="#262626" stop-opacity="0.4"/>
<stop offset="0.9" stop-color="#1A1A1A" stop-opacity="0.4"/>
</linearGradient>
<linearGradient id="paint36_linear_125_30185" x1="46.7987" y1="6.32491" x2="34.8159" y2="6.32491" gradientUnits="userSpaceOnUse">
<stop stop-color="#4D4D4D" stop-opacity="0.4"/>
<stop offset="0.0999838" stop-color="#464646" stop-opacity="0.4"/>
<stop offset="0.6149" stop-color="#262626" stop-opacity="0.4"/>
<stop offset="0.9" stop-color="#1A1A1A" stop-opacity="0.4"/>
</linearGradient>
<linearGradient id="paint37_linear_125_30185" x1="46.7987" y1="16.7752" x2="34.8159" y2="16.7752" gradientUnits="userSpaceOnUse">
<stop stop-color="#4D4D4D" stop-opacity="0.4"/>
<stop offset="0.0999838" stop-color="#464646" stop-opacity="0.4"/>
<stop offset="0.6149" stop-color="#262626" stop-opacity="0.4"/>
<stop offset="0.9" stop-color="#1A1A1A" stop-opacity="0.4"/>
</linearGradient>
<linearGradient id="paint38_linear_125_30185" x1="46.7987" y1="27.2257" x2="34.8159" y2="27.2257" gradientUnits="userSpaceOnUse">
<stop stop-color="#4D4D4D" stop-opacity="0.4"/>
<stop offset="0.0999838" stop-color="#464646" stop-opacity="0.4"/>
<stop offset="0.6149" stop-color="#262626" stop-opacity="0.4"/>
<stop offset="0.9" stop-color="#1A1A1A" stop-opacity="0.4"/>
</linearGradient>
<linearGradient id="paint39_linear_125_30185" x1="46.7987" y1="37.6761" x2="34.8159" y2="37.6761" gradientUnits="userSpaceOnUse">
<stop stop-color="#4D4D4D" stop-opacity="0.4"/>
<stop offset="0.0999838" stop-color="#464646" stop-opacity="0.4"/>
<stop offset="0.6149" stop-color="#262626" stop-opacity="0.4"/>
<stop offset="0.9" stop-color="#1A1A1A" stop-opacity="0.4"/>
</linearGradient>
<linearGradient id="paint40_linear_125_30185" x1="46.7987" y1="48.1262" x2="34.8159" y2="48.1262" gradientUnits="userSpaceOnUse">
<stop stop-color="#4D4D4D" stop-opacity="0.4"/>
<stop offset="0.0999838" stop-color="#464646" stop-opacity="0.4"/>
<stop offset="0.6149" stop-color="#262626" stop-opacity="0.4"/>
<stop offset="0.9" stop-color="#1A1A1A" stop-opacity="0.4"/>
</linearGradient>
<linearGradient id="paint41_linear_125_30185" x1="46.7987" y1="58.5764" x2="34.8159" y2="58.5764" gradientUnits="userSpaceOnUse">
<stop stop-color="#4D4D4D" stop-opacity="0.4"/>
<stop offset="0.0999838" stop-color="#464646" stop-opacity="0.4"/>
<stop offset="0.6149" stop-color="#262626" stop-opacity="0.4"/>
<stop offset="0.9" stop-color="#1A1A1A" stop-opacity="0.4"/>
</linearGradient>
<linearGradient id="paint42_linear_125_30185" x1="34.8159" y1="6.32491" x2="22.8328" y2="6.32491" gradientUnits="userSpaceOnUse">
<stop stop-color="#4D4D4D" stop-opacity="0.4"/>
<stop offset="0.0999838" stop-color="#464646" stop-opacity="0.4"/>
<stop offset="0.6149" stop-color="#262626" stop-opacity="0.4"/>
<stop offset="0.9" stop-color="#1A1A1A" stop-opacity="0.4"/>
</linearGradient>
<linearGradient id="paint43_linear_125_30185" x1="34.8159" y1="16.7752" x2="22.8328" y2="16.7752" gradientUnits="userSpaceOnUse">
<stop stop-color="#4D4D4D" stop-opacity="0.4"/>
<stop offset="0.0999838" stop-color="#464646" stop-opacity="0.4"/>
<stop offset="0.6149" stop-color="#262626" stop-opacity="0.4"/>
<stop offset="0.9" stop-color="#1A1A1A" stop-opacity="0.4"/>
</linearGradient>
<linearGradient id="paint44_linear_125_30185" x1="34.8159" y1="27.2257" x2="22.8328" y2="27.2257" gradientUnits="userSpaceOnUse">
<stop stop-color="#4D4D4D" stop-opacity="0.4"/>
<stop offset="0.0999838" stop-color="#464646" stop-opacity="0.4"/>
<stop offset="0.6149" stop-color="#262626" stop-opacity="0.4"/>
<stop offset="0.9" stop-color="#1A1A1A" stop-opacity="0.4"/>
</linearGradient>
<linearGradient id="paint45_linear_125_30185" x1="34.8159" y1="37.6761" x2="22.8328" y2="37.6761" gradientUnits="userSpaceOnUse">
<stop stop-color="#4D4D4D" stop-opacity="0.4"/>
<stop offset="0.0999838" stop-color="#464646" stop-opacity="0.4"/>
<stop offset="0.6149" stop-color="#262626" stop-opacity="0.4"/>
<stop offset="0.9" stop-color="#1A1A1A" stop-opacity="0.4"/>
</linearGradient>
<linearGradient id="paint46_linear_125_30185" x1="34.8159" y1="48.1262" x2="22.8328" y2="48.1262" gradientUnits="userSpaceOnUse">
<stop stop-color="#4D4D4D" stop-opacity="0.4"/>
<stop offset="0.0999838" stop-color="#464646" stop-opacity="0.4"/>
<stop offset="0.6149" stop-color="#262626" stop-opacity="0.4"/>
<stop offset="0.9" stop-color="#1A1A1A" stop-opacity="0.4"/>
</linearGradient>
<linearGradient id="paint47_linear_125_30185" x1="34.8159" y1="58.5764" x2="22.8328" y2="58.5764" gradientUnits="userSpaceOnUse">
<stop stop-color="#4D4D4D" stop-opacity="0.4"/>
<stop offset="0.0999838" stop-color="#464646" stop-opacity="0.4"/>
<stop offset="0.6149" stop-color="#262626" stop-opacity="0.4"/>
<stop offset="0.9" stop-color="#1A1A1A" stop-opacity="0.4"/>
</linearGradient>
<linearGradient id="paint48_linear_125_30185" x1="22.8328" y1="6.32491" x2="10.8498" y2="6.32491" gradientUnits="userSpaceOnUse">
<stop stop-color="#4D4D4D" stop-opacity="0.4"/>
<stop offset="0.0999838" stop-color="#464646" stop-opacity="0.4"/>
<stop offset="0.6149" stop-color="#262626" stop-opacity="0.4"/>
<stop offset="0.9" stop-color="#1A1A1A" stop-opacity="0.4"/>
</linearGradient>
<linearGradient id="paint49_linear_125_30185" x1="22.8328" y1="16.7752" x2="10.8498" y2="16.7752" gradientUnits="userSpaceOnUse">
<stop stop-color="#4D4D4D" stop-opacity="0.4"/>
<stop offset="0.0999838" stop-color="#464646" stop-opacity="0.4"/>
<stop offset="0.6149" stop-color="#262626" stop-opacity="0.4"/>
<stop offset="0.9" stop-color="#1A1A1A" stop-opacity="0.4"/>
</linearGradient>
<linearGradient id="paint50_linear_125_30185" x1="22.8328" y1="27.2257" x2="10.8498" y2="27.2257" gradientUnits="userSpaceOnUse">
<stop stop-color="#4D4D4D" stop-opacity="0.4"/>
<stop offset="0.0999838" stop-color="#464646" stop-opacity="0.4"/>
<stop offset="0.6149" stop-color="#262626" stop-opacity="0.4"/>
<stop offset="0.9" stop-color="#1A1A1A" stop-opacity="0.4"/>
</linearGradient>
<linearGradient id="paint51_linear_125_30185" x1="22.8328" y1="37.6761" x2="10.8498" y2="37.6761" gradientUnits="userSpaceOnUse">
<stop stop-color="#4D4D4D" stop-opacity="0.4"/>
<stop offset="0.0999838" stop-color="#464646" stop-opacity="0.4"/>
<stop offset="0.6149" stop-color="#262626" stop-opacity="0.4"/>
<stop offset="0.9" stop-color="#1A1A1A" stop-opacity="0.4"/>
</linearGradient>
<linearGradient id="paint52_linear_125_30185" x1="22.8328" y1="48.1262" x2="10.8498" y2="48.1262" gradientUnits="userSpaceOnUse">
<stop stop-color="#4D4D4D" stop-opacity="0.4"/>
<stop offset="0.0999838" stop-color="#464646" stop-opacity="0.4"/>
<stop offset="0.6149" stop-color="#262626" stop-opacity="0.4"/>
<stop offset="0.9" stop-color="#1A1A1A" stop-opacity="0.4"/>
</linearGradient>
<linearGradient id="paint53_linear_125_30185" x1="22.8328" y1="58.5764" x2="10.8498" y2="58.5764" gradientUnits="userSpaceOnUse">
<stop stop-color="#4D4D4D" stop-opacity="0.4"/>
<stop offset="0.0999838" stop-color="#464646" stop-opacity="0.4"/>
<stop offset="0.6149" stop-color="#262626" stop-opacity="0.4"/>
<stop offset="0.9" stop-color="#1A1A1A" stop-opacity="0.4"/>
</linearGradient>
<linearGradient id="paint54_linear_125_30185" x1="10.8494" y1="6.32491" x2="-1.13321" y2="6.32491" gradientUnits="userSpaceOnUse">
<stop stop-color="#4D4D4D" stop-opacity="0.4"/>
<stop offset="0.0999838" stop-color="#464646" stop-opacity="0.4"/>
<stop offset="0.6149" stop-color="#262626" stop-opacity="0.4"/>
<stop offset="0.9" stop-color="#1A1A1A" stop-opacity="0.4"/>
</linearGradient>
<linearGradient id="paint55_linear_125_30185" x1="10.8494" y1="16.7752" x2="-1.13321" y2="16.7752" gradientUnits="userSpaceOnUse">
<stop stop-color="#4D4D4D" stop-opacity="0.4"/>
<stop offset="0.0999838" stop-color="#464646" stop-opacity="0.4"/>
<stop offset="0.6149" stop-color="#262626" stop-opacity="0.4"/>
<stop offset="0.9" stop-color="#1A1A1A" stop-opacity="0.4"/>
</linearGradient>
<linearGradient id="paint56_linear_125_30185" x1="10.8494" y1="27.2257" x2="-1.13321" y2="27.2257" gradientUnits="userSpaceOnUse">
<stop stop-color="#4D4D4D" stop-opacity="0.4"/>
<stop offset="0.0999838" stop-color="#464646" stop-opacity="0.4"/>
<stop offset="0.6149" stop-color="#262626" stop-opacity="0.4"/>
<stop offset="0.9" stop-color="#1A1A1A" stop-opacity="0.4"/>
</linearGradient>
<linearGradient id="paint57_linear_125_30185" x1="10.8494" y1="37.6761" x2="-1.13321" y2="37.6761" gradientUnits="userSpaceOnUse">
<stop stop-color="#4D4D4D" stop-opacity="0.4"/>
<stop offset="0.0999838" stop-color="#464646" stop-opacity="0.4"/>
<stop offset="0.6149" stop-color="#262626" stop-opacity="0.4"/>
<stop offset="0.9" stop-color="#1A1A1A" stop-opacity="0.4"/>
</linearGradient>
<linearGradient id="paint58_linear_125_30185" x1="10.8494" y1="48.1262" x2="-1.13321" y2="48.1262" gradientUnits="userSpaceOnUse">
<stop stop-color="#4D4D4D" stop-opacity="0.4"/>
<stop offset="0.0999838" stop-color="#464646" stop-opacity="0.4"/>
<stop offset="0.6149" stop-color="#262626" stop-opacity="0.4"/>
<stop offset="0.9" stop-color="#1A1A1A" stop-opacity="0.4"/>
</linearGradient>
<linearGradient id="paint59_linear_125_30185" x1="10.8494" y1="58.5764" x2="-1.13321" y2="58.5764" gradientUnits="userSpaceOnUse">
<stop stop-color="#4D4D4D" stop-opacity="0.4"/>
<stop offset="0.0999838" stop-color="#464646" stop-opacity="0.4"/>
<stop offset="0.6149" stop-color="#262626" stop-opacity="0.4"/>
<stop offset="0.9" stop-color="#1A1A1A" stop-opacity="0.4"/>
</linearGradient>
<radialGradient id="paint60_radial_125_30185" cx="0" cy="0" r="1" gradientUnits="userSpaceOnUse" gradientTransform="translate(28.8231 32.4506) scale(52.3716 28.7485)">
<stop offset="0.245" stop-opacity="0.16"/>
<stop offset="1" stop-opacity="0.98"/>
</radialGradient>
<linearGradient id="paint61_linear_125_30185" x1="13.3771" y1="21.6822" x2="22.6261" y2="21.6822" gradientUnits="userSpaceOnUse">
<stop stop-color="#B3B3B3"/>
<stop offset="1" stop-color="#656564"/>
</linearGradient>
<linearGradient id="paint62_linear_125_30185" x1="19.5427" y1="40.1799" x2="38.0406" y2="40.1799" gradientUnits="userSpaceOnUse">
<stop stop-color="#B3B3B3"/>
<stop offset="1" stop-color="#656564"/>
</linearGradient>
<linearGradient id="paint63_linear_125_30185" x1="34.9576" y1="21.6822" x2="44.2065" y2="21.6822" gradientUnits="userSpaceOnUse">
<stop stop-color="#B3B3B3"/>
<stop offset="1" stop-color="#656564"/>
</linearGradient>
<clipPath id="clip0_125_30185">
<rect width="57" height="63" fill="white"/>
</clipPath>
</defs>
</svg>
