<svg width="24" height="24" viewBox="0 0 24 24" fill="none" xmlns="http://www.w3.org/2000/svg">
<path d="M12.0154 18.8096C10.1554 18.8096 8.31039 18.8096 6.45039 18.8096C4.87539 18.8096 3.60039 17.8196 3.24039 16.3196C3.18039 16.0496 3.15039 15.7796 3.15039 15.5096C3.15039 13.1396 3.15039 10.7696 3.15039 8.39961C3.15039 6.70461 4.27539 5.39961 5.94039 5.12961C6.10539 5.09961 6.28539 5.09961 6.45039 5.09961C10.1704 5.09961 13.8904 5.09961 17.6104 5.09961C19.2754 5.09961 20.5654 6.17961 20.8654 7.79961C20.8954 7.99461 20.9104 8.20461 20.9104 8.39961C20.9104 10.7696 20.9104 13.1396 20.9104 15.5096C20.9104 17.2046 19.7854 18.5096 18.1204 18.7796C17.9404 18.8096 17.7454 18.8096 17.5504 18.8096C15.7054 18.8096 13.8604 18.8096 12.0154 18.8096ZM19.2904 8.54961C19.2004 8.62461 19.1404 8.66961 19.0654 8.71461C17.5504 9.89961 16.0354 11.0846 14.5204 12.2546C13.0204 13.4096 11.0254 13.4096 9.52539 12.2396C7.99539 11.0546 6.48039 9.86961 4.96539 8.68461C4.90539 8.63961 4.86039 8.59461 4.78539 8.54961C4.78539 8.60961 4.78539 8.63961 4.78539 8.66961C4.78539 10.9796 4.78539 13.2896 4.78539 15.5846C4.78539 15.7346 4.80039 15.8696 4.84539 16.0196C5.04039 16.7546 5.68539 17.2046 6.51039 17.2046C9.19539 17.2046 11.8954 17.2046 14.5804 17.2046C15.6004 17.2046 16.6054 17.2046 17.6254 17.2046C18.6004 17.2046 19.3054 16.5146 19.3054 15.5696C19.3054 13.2746 19.3054 10.9796 19.3054 8.68461C19.2904 8.65461 19.2904 8.62461 19.2904 8.54961ZM5.44539 7.01961C5.49039 7.06461 5.52039 7.07961 5.55039 7.10961C7.18539 8.38461 8.83539 9.65961 10.4704 10.9346C11.4604 11.6996 12.6154 11.6996 13.6054 10.9196C14.8654 9.94461 16.1104 8.96961 17.3704 7.99461C17.7904 7.66461 18.1954 7.34961 18.6304 7.01961C18.3304 6.79461 18.0004 6.70461 17.6554 6.70461C13.9054 6.70461 10.1704 6.70461 6.42039 6.70461C6.07539 6.70461 5.74539 6.79461 5.44539 7.01961Z" fill="black"/>
</svg>
