<svg width="24" height="24" viewBox="0 0 24 24" fill="none" xmlns="http://www.w3.org/2000/svg">
<g clip-path="url(#clip0_125_30487)">
<path d="M0.00635089 6.61056C0.0444562 6.33142 0.0635089 6.05227 0.114316 5.77947C0.254035 5.0943 0.552527 4.49161 1.04155 3.99676C1.68934 3.33697 2.31172 2.6518 3.00397 2.0491C4.05822 1.1292 5.20773 1.13554 6.22387 2.08717C7.30987 3.10223 8.34507 4.16805 9.35486 5.25291C10.1043 6.05862 10.0979 7.29573 9.36756 8.12682C8.82773 8.7422 8.23075 9.30683 7.64647 9.8905C7.53215 10.0047 7.5131 10.0745 7.58931 10.2267C8.17359 11.4004 8.99286 12.4028 9.88198 13.3544C10.7902 14.3251 11.7936 15.1942 12.9241 15.9175C13.2479 16.1205 13.5909 16.2918 13.9465 16.4884C14.3848 16.0443 14.7976 15.6003 15.2421 15.1879C15.566 14.8834 15.8963 14.5725 16.2773 14.3568C17.0775 13.9064 18.0556 14.0206 18.7161 14.655C19.8275 15.7208 20.9198 16.8056 21.9741 17.9286C22.7552 18.7596 22.7679 20.0221 22.0058 20.8786C21.339 21.6336 20.6277 22.3504 19.9037 23.0547C19.3512 23.5876 18.6589 23.8731 17.8904 23.9746C17.8396 23.9809 17.7888 24.0063 17.738 24.019C17.4395 24.019 17.141 24.019 16.8489 24.019C16.7981 24.0063 16.7473 23.9872 16.6965 23.9746C16.1884 23.8794 15.674 23.8223 15.1786 23.6954C13.4194 23.2323 11.8126 22.4139 10.2821 21.4496C6.4525 19.0134 3.50569 15.7715 1.448 11.7367C0.870072 10.601 0.419159 9.41469 0.165123 8.15854C0.0825615 7.75251 0.057158 7.34014 0 6.93411C0.00635089 6.82626 0.00635089 6.71841 0.00635089 6.61056ZM1.39084 6.80723C1.41625 7.08003 1.4353 7.35283 1.46705 7.61928C1.47976 7.73982 1.51151 7.86671 1.53691 7.98725C1.90527 9.64307 2.60386 11.1657 3.48664 12.5995C5.84282 16.4186 8.9738 19.4004 13.0193 21.3861C14.2641 21.9952 15.5533 22.49 16.9505 22.6169C17.8142 22.693 18.5763 22.49 19.1924 21.8429C19.7005 21.31 20.2212 20.7961 20.7356 20.2696C20.8119 20.1934 20.8881 20.111 20.9516 20.0221C21.2818 19.5971 21.2818 19.1466 20.9198 18.747C20.5515 18.3409 20.1577 17.9603 19.7703 17.5733C19.167 16.9706 18.57 16.3679 17.9603 15.7715C17.5221 15.3401 17.0521 15.3401 16.5885 15.7462C16.5187 15.8096 16.4488 15.8731 16.3853 15.9428C15.8455 16.4757 15.312 17.015 14.7722 17.5479C14.3975 17.9159 13.9783 18.0047 13.5274 17.7826C13.0765 17.5543 12.6192 17.3195 12.1937 17.0531C10.7266 16.1268 9.46282 14.9658 8.33236 13.6653C7.55756 12.7708 6.84626 11.8318 6.34454 10.7533C5.91903 9.83974 5.97618 9.59232 6.70654 8.88812C7.22731 8.38693 7.74808 7.8794 8.2498 7.34648C8.65626 6.91508 8.64356 6.48368 8.2625 6.0269C8.21805 5.97614 8.16724 5.91905 8.12278 5.86829C7.21461 4.95473 6.30008 4.04117 5.38555 3.13395C5.28394 3.03245 5.16327 2.93094 5.03625 2.86116C4.63615 2.63911 4.22334 2.73427 3.81053 3.1403C3.28976 3.64783 2.79439 4.1744 2.26727 4.67559C1.65123 5.27194 1.35909 5.9698 1.39084 6.80723Z" fill="black"/>
<path d="M13.356 0C13.6418 0.0570975 13.9911 0.114195 14.3277 0.203013C16.4108 0.72958 18.2589 1.70024 19.8593 3.13402C21.5169 4.6249 22.7363 6.41396 23.4603 8.52657C23.6889 9.18636 23.8286 9.87788 23.9874 10.563C24.0763 10.95 23.8477 11.2672 23.473 11.3561C23.1237 11.4385 22.7807 11.2419 22.6791 10.8739C22.5711 10.4933 22.5076 10.0999 22.3997 9.71293C21.6947 7.13719 20.2404 5.06265 18.1128 3.45757C16.7156 2.41079 15.1533 1.73196 13.4386 1.40206C13.3115 1.37669 13.1782 1.35131 13.0512 1.3069C12.7463 1.1927 12.5748 0.869151 12.632 0.551943C12.6892 0.241078 12.9813 0 13.356 0Z" fill="black"/>
<path d="M13.177 4.3585C13.7994 4.45366 14.4472 4.6313 15.0569 4.91678C17.5591 6.08411 19.0897 8.01908 19.6486 10.7217C19.7311 11.1214 19.5152 11.483 19.1405 11.5718C18.7849 11.6543 18.4356 11.4322 18.3212 11.0516C18.1625 10.5377 18.0672 9.99846 17.8449 9.51631C16.8986 7.44811 15.2982 6.19196 13.0691 5.72884C12.6626 5.64636 12.4467 5.41163 12.4403 5.05635C12.4276 4.65667 12.7325 4.35215 13.177 4.3585Z" fill="black"/>
</g>
<defs>
<clipPath id="clip0_125_30487">
<rect width="24" height="24" fill="white"/>
</clipPath>
</defs>
</svg>
