<svg width="154" height="30" viewBox="0 0 154 30" fill="none" xmlns="http://www.w3.org/2000/svg">
<path d="M2.01299 9.02599L0 5H3.96105L5.97404 9.02599H2.01299Z" fill="url(#paint0_linear_258_688)" fill-opacity="0.6"/>
<path d="M9.99991 24.9999L3.96094 12.9868H7.98692L9.99991 17.0128L12.0129 12.9868H15.974L9.99991 24.9999Z" fill="url(#paint1_linear_258_688)" fill-opacity="0.6"/>
<path d="M14.0254 9.02599L15.9734 5H19.9994L17.9864 9.02599H14.0254Z" fill="url(#paint2_linear_258_688)" fill-opacity="0.6"/>
<path d="M35.641 6.248V23H32.281V6.248H35.641ZM53.2887 23H49.9287L42.3207 11.504V23H38.9607V6.224H42.3207L49.9287 17.744V6.224H53.2887V23ZM71.6571 6.248L65.5131 23H61.4331L55.2891 6.248H58.8891L63.4971 19.568L68.0811 6.248H71.6571ZM77.0316 6.248V23H73.6716V6.248H77.0316ZM79.5353 14.6C79.5353 12.952 79.9033 11.48 80.6393 10.184C81.3913 8.872 82.4073 7.856 83.6873 7.136C84.9833 6.4 86.4313 6.032 88.0313 6.032C89.9033 6.032 91.5433 6.512 92.9513 7.472C94.3593 8.432 95.3433 9.76 95.9033 11.456H92.0393C91.6553 10.656 91.1113 10.056 90.4073 9.656C89.7193 9.256 88.9193 9.056 88.0073 9.056C87.0313 9.056 86.1593 9.288 85.3913 9.752C84.6393 10.2 84.0473 10.84 83.6153 11.672C83.1993 12.504 82.9913 13.48 82.9913 14.6C82.9913 15.704 83.1993 16.68 83.6153 17.528C84.0473 18.36 84.6393 19.008 85.3913 19.472C86.1593 19.92 87.0313 20.144 88.0073 20.144C88.9193 20.144 89.7193 19.944 90.4073 19.544C91.1113 19.128 91.6553 18.52 92.0393 17.72H95.9033C95.3433 19.432 94.3593 20.768 92.9513 21.728C91.5593 22.672 89.9193 23.144 88.0313 23.144C86.4313 23.144 84.9833 22.784 83.6873 22.064C82.4073 21.328 81.3913 20.312 80.6393 19.016C79.9033 17.72 79.5353 16.248 79.5353 14.6ZM102.133 6.248V23H98.7732V6.248H102.133ZM113.229 23.168C111.661 23.168 110.221 22.8 108.909 22.064C107.597 21.328 106.557 20.312 105.789 19.016C105.021 17.704 104.637 16.224 104.637 14.576C104.637 12.944 105.021 11.48 105.789 10.184C106.557 8.872 107.597 7.848 108.909 7.112C110.221 6.376 111.661 6.008 113.229 6.008C114.813 6.008 116.253 6.376 117.549 7.112C118.861 7.848 119.893 8.872 120.645 10.184C121.413 11.48 121.797 12.944 121.797 14.576C121.797 16.224 121.413 17.704 120.645 19.016C119.893 20.312 118.861 21.328 117.549 22.064C116.237 22.8 114.797 23.168 113.229 23.168ZM113.229 20.168C114.237 20.168 115.125 19.944 115.893 19.496C116.661 19.032 117.261 18.376 117.693 17.528C118.125 16.68 118.341 15.696 118.341 14.576C118.341 13.456 118.125 12.48 117.693 11.648C117.261 10.8 116.661 10.152 115.893 9.704C115.125 9.256 114.237 9.032 113.229 9.032C112.221 9.032 111.325 9.256 110.541 9.704C109.773 10.152 109.173 10.8 108.741 11.648C108.309 12.48 108.093 13.456 108.093 14.576C108.093 15.696 108.309 16.68 108.741 17.528C109.173 18.376 109.773 19.032 110.541 19.496C111.325 19.944 112.221 20.168 113.229 20.168ZM127.609 6.248V16.616C127.609 17.752 127.905 18.624 128.497 19.232C129.089 19.824 129.921 20.12 130.993 20.12C132.081 20.12 132.921 19.824 133.513 19.232C134.105 18.624 134.401 17.752 134.401 16.616V6.248H137.785V16.592C137.785 18.016 137.473 19.224 136.849 20.216C136.241 21.192 135.417 21.928 134.377 22.424C133.353 22.92 132.209 23.168 130.945 23.168C129.697 23.168 128.561 22.92 127.537 22.424C126.529 21.928 125.729 21.192 125.137 20.216C124.545 19.224 124.249 18.016 124.249 16.592V6.248H127.609ZM146.815 23.168C145.647 23.168 144.591 22.968 143.647 22.568C142.719 22.168 141.983 21.592 141.439 20.84C140.895 20.088 140.615 19.2 140.599 18.176H144.199C144.247 18.864 144.487 19.408 144.919 19.808C145.367 20.208 145.975 20.408 146.743 20.408C147.527 20.408 148.143 20.224 148.591 19.856C149.039 19.472 149.263 18.976 149.263 18.368C149.263 17.872 149.111 17.464 148.807 17.144C148.503 16.824 148.119 16.576 147.655 16.4C147.207 16.208 146.583 16 145.783 15.776C144.695 15.456 143.807 15.144 143.119 14.84C142.447 14.52 141.863 14.048 141.367 13.424C140.887 12.784 140.647 11.936 140.647 10.88C140.647 9.888 140.895 9.024 141.391 8.288C141.887 7.552 142.583 6.992 143.479 6.608C144.375 6.208 145.399 6.008 146.551 6.008C148.279 6.008 149.679 6.432 150.751 7.28C151.839 8.112 152.439 9.28 152.551 10.784H148.855C148.823 10.208 148.575 9.736 148.111 9.368C147.663 8.984 147.063 8.792 146.311 8.792C145.655 8.792 145.127 8.96 144.727 9.296C144.343 9.632 144.151 10.12 144.151 10.76C144.151 11.208 144.295 11.584 144.583 11.888C144.887 12.176 145.255 12.416 145.687 12.608C146.135 12.784 146.759 12.992 147.559 13.232C148.647 13.552 149.535 13.872 150.223 14.192C150.911 14.512 151.503 14.992 151.999 15.632C152.495 16.272 152.743 17.112 152.743 18.152C152.743 19.048 152.511 19.88 152.047 20.648C151.583 21.416 150.903 22.032 150.007 22.496C149.111 22.944 148.047 23.168 146.815 23.168Z" fill="url(#paint3_linear_258_688)" fill-opacity="0.6"/>
<defs>
<linearGradient id="paint0_linear_258_688" x1="2.98702" y1="5" x2="2.98702" y2="9.02599" gradientUnits="userSpaceOnUse">
<stop stop-color="#B3B3B3"/>
<stop offset="1" stop-color="#656564" stop-opacity="0"/>
</linearGradient>
<linearGradient id="paint1_linear_258_688" x1="9.96744" y1="12.9868" x2="9.96744" y2="24.9999" gradientUnits="userSpaceOnUse">
<stop stop-color="#B3B3B3"/>
<stop offset="1" stop-color="#656564" stop-opacity="0"/>
</linearGradient>
<linearGradient id="paint2_linear_258_688" x1="17.0124" y1="5" x2="17.0124" y2="9.02599" gradientUnits="userSpaceOnUse">
<stop stop-color="#B3B3B3"/>
<stop offset="1" stop-color="#656564" stop-opacity="0"/>
</linearGradient>
<linearGradient id="paint3_linear_258_688" x1="92" y1="0" x2="92" y2="30" gradientUnits="userSpaceOnUse">
<stop stop-color="#B3B3B3"/>
<stop offset="1" stop-color="#656564" stop-opacity="0"/>
</linearGradient>
</defs>
</svg>
